#tb 0: 1/25
0,          0,          0,        1,   191788, ff02a91e03b0a94b37af9ea51ab68242
0,          1,          1,        1,   191808, 655052bb397edc4391f1eb650dc47871
0,          2,          2,        1,   191652, fa6238888b811ede6e9c9f62e70dd0f7
0,          3,          3,        1,   191680, 54d54092523e7930aa4a8f9368512281
0,          4,          4,        1,   191964, 5ef03667afca82f49916ae83e195882a
0,          5,          5,        1,   191748, dac12c404963c2e0ae5b48a7fdf73e77
0,          6,          6,        1,   191708, 040941871e8c877f187bcf6bf4ced7e9
0,          7,          7,        1,   191676, 9743925e523417ebb8bc67398db998bb
0,          8,          8,        1,   191564, 1ed1955e9917b449820910a7f0b32ccf
0,          9,          9,        1,   191548, d5c4c8105156760a0ec6fe301ecdf21c
0,         10,         10,        1,   191456, dbc73bc7e39f40fc270bf679f581d4dd
0,         11,         11,        1,   191276, a824fb35c5ae1373cc7bf21b07cc8c76
0,         12,         12,        1,   191688, bdb5ef586ef4ff64c4f4bde0ce0bfc51
0,         13,         13,        1,   191412, 1639afbba6e6b5781355377e450cf8b4
0,         14,         14,        1,   191408, 086b3cef987cc05cde1ab4e65a08eaa0
0,         15,         15,        1,   191404, 72ba9aa193eb87d7ac7631abc1a57926
0,         16,         16,        1,   191488, 20b5d383654a24966ae8cef0bb9797d9
0,         17,         17,        1,   191568, 73a64fc6f24d33dc66c3f250bb2bb780
0,         18,         18,        1,   191592, c53abd778e04e5c7872cc683f14d1573
0,         19,         19,        1,   191604, 49a74ad438ecf106c5f463293b2b244c
0,         20,         20,        1,   191588, 73424c3524c45610276116f947acf453
0,         21,         21,        1,   191648, 931d156f5077fafc3d3de5992924bf04
0,         22,         22,        1,   191536, 07e2afbbb3089ebe578606190c13d1d9
0,         23,         23,        1,   191584, c4612e5016957be04efde7ed617ef366
0,         24,         24,        1,   191636, dc050ed93382112e04c70671527a30f5
0,         25,         25,        1,   191512, 185b3fce35bd0daec1863a867924e0af
0,         26,         26,        1,   191632, 3943a51c9b74627cfb957ed48e2f05c9
0,         27,         27,        1,   191796, 0b9f806f55ee7a4e3da57d020f55a506
0,         28,         28,        1,   192012, 682a5ccd7ceabd0b78e082db56d0cdea
0,         29,         29,        1,   191952, 125f8574ea41e351197a5ea19fdef534
0,         30,         30,        1,   191724, 37a0f598b5499d8f87bc59e3533ae865
0,         31,         31,        1,   191780, 4af30d848aae71f6b771772650f19855
0,         32,         32,        1,   191624, 253d25de282366630257cc475bc25406
0,         33,         33,        1,   191392, 00e0e8f4e9e957b11d8cd06c808564c3
0,         34,         34,        1,   191328, a920f74d3c03b861156509dc1056bb15
0,         35,         35,        1,   191532, bd46443a91845d421a1d602884c2752f
0,         36,         36,        1,   191844, b1e04afa26a9bee13fc7cc2736987d8e
0,         37,         37,        1,   191824, 611a706a43ad910e90bf8fd3818ca987
0,         38,         38,        1,   191800, a810b661c6be0257df68252b36f7cf3d
0,         39,         39,        1,   191692, 4560e8f9db047066e5140d59f408c82c
0,         40,         40,        1,   191804, 1ba3a85b5a3f4ca503aa2ef4ae3a7b79
0,         41,         41,        1,   191540, e739afb686e4d0d7ae2817ecc5fba584
0,         42,         42,        1,   191536, fbb2e21954ff43b603c932ca03dd71d0
0,         43,         43,        1,   191680, ee91c6758842419248ed5ecbdbdfaf89
0,         44,         44,        1,   191784, 8137a4fd101c279d62ab23ef08bc763a
0,         45,         45,        1,   191936, 838ee8574f632222c45866841749cd9c
0,         46,         46,        1,   191912, 80f414eca8c544d09acac6696314a74b
0,         47,         47,        1,   191772, 5e457f447e765b2f13e8e9a9af359ec8
0,         48,         48,        1,   191704, 501ce8349316c6ab1c3100eecb31b551
0,         49,         49,        1,   191720, 3999f5d44150a6e44cf4fe55a3d146e0
